<?xml version="1.0" encoding="UTF-8"?>
<svg version="1.1" xmlns="http://www.w3.org/2000/svg" width="750" height="330">
<path d="M0 0 C0.66870117 0.24588867 1.33740234 0.49177734 2.02636719 0.74511719 C42.51092688 15.81573563 76.76569635 46.53130106 94.85913086 85.98217773 C112.65514242 126.29021708 115.74074127 172.89396645 99.6875 214.375 C89.18138523 240.40524758 73.24256588 265.41285488 51 283 C50.46987305 283.42603516 49.93974609 283.85207031 49.39355469 284.29101562 C13.53285641 312.92532792 -30.02473116 324.93245717 -75.62890625 320.53125 C-93.57028276 318.36232151 -110.75865502 312.79229557 -127 305 C-128.06605469 304.50628906 -129.13210938 304.01257813 -130.23046875 303.50390625 C-145.17174996 296.37152233 -159.65387379 286.11198973 -171 274 C-171.78890625 273.21238281 -172.5778125 272.42476563 -173.390625 271.61328125 C-202.64816171 242.31194583 -220.24567459 201.98889862 -220.32226562 160.44726562 C-220.32009033 159.66262939 -220.31791504 158.87799316 -220.31567383 158.06958008 C-220.31251694 155.70021313 -220.33606894 153.33210436 -220.36132812 150.96289062 C-220.40537555 140.33961528 -219.22386037 130.38100504 -217 120 C-216.81187744 119.11594482 -216.62375488 118.23188965 -216.42993164 117.32104492 C-215.96145203 115.27907742 -215.4431864 113.26629389 -214.875 111.25 C-214.67036133 110.52377441 -214.46572266 109.79754883 -214.25488281 109.04931641 C-207.18132386 85.21011095 -195.00883065 64.04142664 -178.44140625 45.62890625 C-177.25215094 44.28495106 -176.14483048 42.86896935 -175.0625 41.4375 C-172.05619386 37.88459274 -168.54490397 35.00139229 -165 32 C-164.48800049 31.54858643 -163.97600098 31.09717285 -163.44848633 30.63208008 C-159.25997671 26.96380877 -154.91691291 23.68939845 -150.3125 20.5625 C-149.60971924 20.08514404 -148.90693848 19.60778809 -148.18286133 19.1159668 C-105.13965384 -9.87851815 -49.12937608 -18.35941194 0 0 Z " fill="#010101" transform="translate(640,9)"/>
<path d="M0 0 C108.9 0 217.8 0 330 0 C330 20.8984679 330 20.8984679 328.8125 27 C328.6779541 27.73307373 328.5434082 28.46614746 328.40478516 29.22143555 C321.71096415 64.06868019 305.37975506 94.27100789 280 119 C279.52304687 119.53367187 279.04609375 120.06734375 278.5546875 120.6171875 C254.0142371 147.13848143 212.62449329 163.73227979 176.80200195 165.12426758 C127.16381873 166.22992465 84.01326874 151.21788331 47.859375 116.79296875 C15.62627982 85.30845638 2.20410882 44.08217643 0 0 Z " fill="#010101" transform="translate(0,165)"/>
</svg>
